<svg id="visual" viewBox="0 0 1080 1920" width="1080" height="1920" xmlns="http://www.w3.org/2000/svg" xmlns:xlink="http://www.w3.org/1999/xlink" version="1.1"><rect x="0" y="0" width="1080" height="1920" fill="#0D3D4E"></rect><defs><linearGradient id="grad1_0" x1="0%" y1="0%" x2="100%" y2="100%"><stop offset="30%" stop-color="#b4d4ff" stop-opacity="1"></stop><stop offset="70%" stop-color="#b4d4ff" stop-opacity="1"></stop></linearGradient></defs><defs><linearGradient id="grad1_1" x1="0%" y1="0%" x2="100%" y2="100%"><stop offset="30%" stop-color="#b4d4ff" stop-opacity="1"></stop><stop offset="70%" stop-color="#9abde4" stop-opacity="1"></stop></linearGradient></defs><defs><linearGradient id="grad1_2" x1="0%" y1="0%" x2="100%" y2="100%"><stop offset="30%" stop-color="#81a6c9" stop-opacity="1"></stop><stop offset="70%" stop-color="#9abde4" stop-opacity="1"></stop></linearGradient></defs><defs><linearGradient id="grad1_3" x1="0%" y1="0%" x2="100%" y2="100%"><stop offset="30%" stop-color="#81a6c9" stop-opacity="1"></stop><stop offset="70%" stop-color="#6890af" stop-opacity="1"></stop></linearGradient></defs><defs><linearGradient id="grad1_4" x1="0%" y1="0%" x2="100%" y2="100%"><stop offset="30%" stop-color="#517a96" stop-opacity="1"></stop><stop offset="70%" stop-color="#6890af" stop-opacity="1"></stop></linearGradient></defs><defs><linearGradient id="grad1_5" x1="0%" y1="0%" x2="100%" y2="100%"><stop offset="30%" stop-color="#517a96" stop-opacity="1"></stop><stop offset="70%" stop-color="#3b657d" stop-opacity="1"></stop></linearGradient></defs><defs><linearGradient id="grad1_6" x1="0%" y1="0%" x2="100%" y2="100%"><stop offset="30%" stop-color="#255165" stop-opacity="1"></stop><stop offset="70%" stop-color="#3b657d" stop-opacity="1"></stop></linearGradient></defs><defs><linearGradient id="grad1_7" x1="0%" y1="0%" x2="100%" y2="100%"><stop offset="30%" stop-color="#255165" stop-opacity="1"></stop><stop offset="70%" stop-color="#0d3d4e" stop-opacity="1"></stop></linearGradient></defs><defs><linearGradient id="grad2_0" x1="0%" y1="0%" x2="100%" y2="100%"><stop offset="30%" stop-color="#b4d4ff" stop-opacity="1"></stop><stop offset="70%" stop-color="#b4d4ff" stop-opacity="1"></stop></linearGradient></defs><defs><linearGradient id="grad2_1" x1="0%" y1="0%" x2="100%" y2="100%"><stop offset="30%" stop-color="#9abde4" stop-opacity="1"></stop><stop offset="70%" stop-color="#b4d4ff" stop-opacity="1"></stop></linearGradient></defs><defs><linearGradient id="grad2_2" x1="0%" y1="0%" x2="100%" y2="100%"><stop offset="30%" stop-color="#9abde4" stop-opacity="1"></stop><stop offset="70%" stop-color="#81a6c9" stop-opacity="1"></stop></linearGradient></defs><defs><linearGradient id="grad2_3" x1="0%" y1="0%" x2="100%" y2="100%"><stop offset="30%" stop-color="#6890af" stop-opacity="1"></stop><stop offset="70%" stop-color="#81a6c9" stop-opacity="1"></stop></linearGradient></defs><defs><linearGradient id="grad2_4" x1="0%" y1="0%" x2="100%" y2="100%"><stop offset="30%" stop-color="#6890af" stop-opacity="1"></stop><stop offset="70%" stop-color="#517a96" stop-opacity="1"></stop></linearGradient></defs><defs><linearGradient id="grad2_5" x1="0%" y1="0%" x2="100%" y2="100%"><stop offset="30%" stop-color="#3b657d" stop-opacity="1"></stop><stop offset="70%" stop-color="#517a96" stop-opacity="1"></stop></linearGradient></defs><defs><linearGradient id="grad2_6" x1="0%" y1="0%" x2="100%" y2="100%"><stop offset="30%" stop-color="#3b657d" stop-opacity="1"></stop><stop offset="70%" stop-color="#255165" stop-opacity="1"></stop></linearGradient></defs><defs><linearGradient id="grad2_7" x1="0%" y1="0%" x2="100%" y2="100%"><stop offset="30%" stop-color="#0d3d4e" stop-opacity="1"></stop><stop offset="70%" stop-color="#255165" stop-opacity="1"></stop></linearGradient></defs><g transform="translate(1080, 0)"><path d="M0 810C-107 794.9 -214 779.9 -305 736.3C-396 692.8 -470.9 620.8 -548 548C-625.1 475.2 -704.3 401.5 -748.3 310C-792.4 218.5 -801.2 109.2 -810 0L0 0Z" fill="#194759"></path><path d="M0 708.8C-93.6 695.6 -187.3 682.4 -266.9 644.3C-346.5 606.2 -412.1 543.2 -479.5 479.5C-547 415.8 -616.3 351.3 -654.8 271.2C-693.3 191.2 -701 95.6 -708.7 0L0 0Z" fill="#305b71"></path><path d="M0 607.5C-80.3 596.2 -160.5 584.9 -228.7 552.2C-297 519.6 -353.2 465.6 -411 411C-468.8 356.4 -528.2 301.1 -561.3 232.5C-594.3 163.9 -600.9 81.9 -607.5 0L0 0Z" fill="#467089"></path><path d="M0 506.3C-66.9 496.8 -133.8 487.4 -190.6 460.2C-247.5 433 -294.3 388 -342.5 342.5C-390.7 297 -440.2 250.9 -467.7 193.7C-495.2 136.6 -500.7 68.3 -506.2 0L0 0Z" fill="#5d85a3"></path><path d="M0 405C-53.5 397.5 -107 389.9 -152.5 368.2C-198 346.4 -235.5 310.4 -274 274C-312.5 237.6 -352.2 200.7 -374.2 155C-396.2 109.2 -400.6 54.6 -405 0L0 0Z" fill="#749bbc"></path><path d="M0 303.8C-40.1 298.1 -80.3 292.4 -114.4 276.1C-148.5 259.8 -176.6 232.8 -205.5 205.5C-234.4 178.2 -264.1 150.5 -280.6 116.2C-297.1 81.9 -300.4 41 -303.7 0L0 0Z" fill="#8db2d7"></path><path d="M0 202.5C-26.8 198.7 -53.5 195 -76.2 184.1C-99 173.2 -117.7 155.2 -137 137C-156.3 118.8 -176.1 100.4 -187.1 77.5C-198.1 54.6 -200.3 27.3 -202.5 0L0 0Z" fill="#a7c8f1"></path><path d="M0 101.3C-13.4 99.4 -26.8 97.5 -38.1 92C-49.5 86.6 -58.9 77.6 -68.5 68.5C-78.1 59.4 -88 50.2 -93.5 38.7C-99 27.3 -100.1 13.7 -101.2 0L0 0Z" fill="#b4d4ff"></path></g><g transform="translate(0, 1920)"><path d="M0 -810C107.9 -800.1 215.8 -790.3 310 -748.3C404.2 -706.4 484.8 -632.4 553.7 -553.7C622.6 -475 679.8 -391.6 720.6 -298.5C761.4 -205.4 785.7 -102.7 810 0L0 0Z" fill="#194759"></path><path d="M0 -708.7C94.4 -700.1 188.8 -691.5 271.2 -654.8C353.7 -618.1 424.2 -553.3 484.5 -484.5C544.8 -415.6 594.9 -342.6 630.5 -261.2C666.2 -179.8 687.5 -89.9 708.8 0L0 0Z" fill="#305b71"></path><path d="M0 -607.5C80.9 -600.1 161.8 -592.7 232.5 -561.3C303.1 -529.8 363.6 -474.3 415.2 -415.2C466.9 -356.2 509.9 -293.7 540.5 -223.9C571.1 -154.1 589.3 -77 607.5 0L0 0Z" fill="#467089"></path><path d="M0 -506.2C67.4 -500.1 134.8 -493.9 193.7 -467.7C252.6 -441.5 303 -395.2 346 -346C389.1 -296.8 424.9 -244.7 450.4 -186.6C475.9 -128.4 491.1 -64.2 506.3 0L0 0Z" fill="#5d85a3"></path><path d="M0 -405C53.9 -400.1 107.9 -395.1 155 -374.2C202.1 -353.2 242.4 -316.2 276.8 -276.8C311.3 -237.5 339.9 -195.8 360.3 -149.2C380.7 -102.7 392.9 -51.4 405 0L0 0Z" fill="#749bbc"></path><path d="M0 -303.7C40.5 -300.1 80.9 -296.4 116.2 -280.6C151.6 -264.9 181.8 -237.1 207.6 -207.6C233.5 -178.1 254.9 -146.8 270.2 -111.9C285.5 -77 294.6 -38.5 303.8 0L0 0Z" fill="#8db2d7"></path><path d="M0 -202.5C27 -200 53.9 -197.6 77.5 -187.1C101 -176.6 121.2 -158.1 138.4 -138.4C155.6 -118.7 170 -97.9 180.2 -74.6C190.4 -51.4 196.4 -25.7 202.5 0L0 0Z" fill="#a7c8f1"></path><path d="M0 -101.2C13.5 -100 27 -98.8 38.7 -93.5C50.5 -88.3 60.6 -79 69.2 -69.2C77.8 -59.4 85 -48.9 90.1 -37.3C95.2 -25.7 98.2 -12.8 101.3 0L0 0Z" fill="#b4d4ff"></path></g></svg>