<svg id="visual" viewBox="0 0 1920 1080" width="1920" height="1080" xmlns="http://www.w3.org/2000/svg" xmlns:xlink="http://www.w3.org/1999/xlink" version="1.1"><rect x="0" y="0" width="1920" height="1080" fill="#0D3D4E"></rect><defs><linearGradient id="grad1_0" x1="43.8%" y1="0%" x2="100%" y2="100%"><stop offset="14.444444444444446%" stop-color="#b4d4ff" stop-opacity="1"></stop><stop offset="85.55555555555554%" stop-color="#b4d4ff" stop-opacity="1"></stop></linearGradient></defs><defs><linearGradient id="grad1_1" x1="43.8%" y1="0%" x2="100%" y2="100%"><stop offset="14.444444444444446%" stop-color="#b4d4ff" stop-opacity="1"></stop><stop offset="85.55555555555554%" stop-color="#9abde4" stop-opacity="1"></stop></linearGradient></defs><defs><linearGradient id="grad1_2" x1="43.8%" y1="0%" x2="100%" y2="100%"><stop offset="14.444444444444446%" stop-color="#81a6c9" stop-opacity="1"></stop><stop offset="85.55555555555554%" stop-color="#9abde4" stop-opacity="1"></stop></linearGradient></defs><defs><linearGradient id="grad1_3" x1="43.8%" y1="0%" x2="100%" y2="100%"><stop offset="14.444444444444446%" stop-color="#81a6c9" stop-opacity="1"></stop><stop offset="85.55555555555554%" stop-color="#6890af" stop-opacity="1"></stop></linearGradient></defs><defs><linearGradient id="grad1_4" x1="43.8%" y1="0%" x2="100%" y2="100%"><stop offset="14.444444444444446%" stop-color="#517a96" stop-opacity="1"></stop><stop offset="85.55555555555554%" stop-color="#6890af" stop-opacity="1"></stop></linearGradient></defs><defs><linearGradient id="grad1_5" x1="43.8%" y1="0%" x2="100%" y2="100%"><stop offset="14.444444444444446%" stop-color="#517a96" stop-opacity="1"></stop><stop offset="85.55555555555554%" stop-color="#3b657d" stop-opacity="1"></stop></linearGradient></defs><defs><linearGradient id="grad1_6" x1="43.8%" y1="0%" x2="100%" y2="100%"><stop offset="14.444444444444446%" stop-color="#255165" stop-opacity="1"></stop><stop offset="85.55555555555554%" stop-color="#3b657d" stop-opacity="1"></stop></linearGradient></defs><defs><linearGradient id="grad1_7" x1="43.8%" y1="0%" x2="100%" y2="100%"><stop offset="14.444444444444446%" stop-color="#255165" stop-opacity="1"></stop><stop offset="85.55555555555554%" stop-color="#0d3d4e" stop-opacity="1"></stop></linearGradient></defs><defs><linearGradient id="grad2_0" x1="0%" y1="0%" x2="56.3%" y2="100%"><stop offset="14.444444444444446%" stop-color="#b4d4ff" stop-opacity="1"></stop><stop offset="85.55555555555554%" stop-color="#b4d4ff" stop-opacity="1"></stop></linearGradient></defs><defs><linearGradient id="grad2_1" x1="0%" y1="0%" x2="56.3%" y2="100%"><stop offset="14.444444444444446%" stop-color="#9abde4" stop-opacity="1"></stop><stop offset="85.55555555555554%" stop-color="#b4d4ff" stop-opacity="1"></stop></linearGradient></defs><defs><linearGradient id="grad2_2" x1="0%" y1="0%" x2="56.3%" y2="100%"><stop offset="14.444444444444446%" stop-color="#9abde4" stop-opacity="1"></stop><stop offset="85.55555555555554%" stop-color="#81a6c9" stop-opacity="1"></stop></linearGradient></defs><defs><linearGradient id="grad2_3" x1="0%" y1="0%" x2="56.3%" y2="100%"><stop offset="14.444444444444446%" stop-color="#6890af" stop-opacity="1"></stop><stop offset="85.55555555555554%" stop-color="#81a6c9" stop-opacity="1"></stop></linearGradient></defs><defs><linearGradient id="grad2_4" x1="0%" y1="0%" x2="56.3%" y2="100%"><stop offset="14.444444444444446%" stop-color="#6890af" stop-opacity="1"></stop><stop offset="85.55555555555554%" stop-color="#517a96" stop-opacity="1"></stop></linearGradient></defs><defs><linearGradient id="grad2_5" x1="0%" y1="0%" x2="56.3%" y2="100%"><stop offset="14.444444444444446%" stop-color="#3b657d" stop-opacity="1"></stop><stop offset="85.55555555555554%" stop-color="#517a96" stop-opacity="1"></stop></linearGradient></defs><defs><linearGradient id="grad2_6" x1="0%" y1="0%" x2="56.3%" y2="100%"><stop offset="14.444444444444446%" stop-color="#3b657d" stop-opacity="1"></stop><stop offset="85.55555555555554%" stop-color="#255165" stop-opacity="1"></stop></linearGradient></defs><defs><linearGradient id="grad2_7" x1="0%" y1="0%" x2="56.3%" y2="100%"><stop offset="14.444444444444446%" stop-color="#0d3d4e" stop-opacity="1"></stop><stop offset="85.55555555555554%" stop-color="#255165" stop-opacity="1"></stop></linearGradient></defs><g transform="translate(1920, 0)"><path d="M0 810C-103.2 785.6 -206.4 761.2 -297.7 718.8C-389 676.3 -468.4 615.8 -547.3 547.3C-626.2 478.8 -704.6 402.5 -748.3 310C-792 217.4 -801 108.7 -810 0L0 0Z" fill="#194759"></path><path d="M0 708.8C-90.3 687.4 -180.6 666.1 -260.5 628.9C-340.4 591.8 -409.8 538.8 -478.9 478.9C-547.9 419 -616.6 352.2 -654.8 271.2C-693 190.3 -700.9 95.1 -708.7 0L0 0Z" fill="#305b71"></path><path d="M0 607.5C-77.4 589.2 -154.8 570.9 -223.3 539.1C-291.8 507.2 -351.3 461.8 -410.5 410.5C-469.7 359.1 -528.5 301.9 -561.3 232.5C-594 163.1 -600.8 81.5 -607.5 0L0 0Z" fill="#467089"></path><path d="M0 506.3C-64.5 491 -129 475.8 -186.1 449.2C-243.1 422.7 -292.7 384.8 -342.1 342.1C-391.4 299.3 -440.4 251.6 -467.7 193.7C-495 135.9 -500.6 68 -506.2 0L0 0Z" fill="#5d85a3"></path><path d="M0 405C-51.6 392.8 -103.2 380.6 -148.9 359.4C-194.5 338.2 -234.2 307.9 -273.7 273.7C-313.1 239.4 -352.3 201.3 -374.2 155C-396 108.7 -400.5 54.4 -405 0L0 0Z" fill="#749bbc"></path><path d="M0 303.8C-38.7 294.6 -77.4 285.5 -111.6 269.5C-145.9 253.6 -175.6 230.9 -205.2 205.2C-234.8 179.6 -264.2 150.9 -280.6 116.2C-297 81.5 -300.4 40.8 -303.7 0L0 0Z" fill="#8db2d7"></path><path d="M0 202.5C-25.8 196.4 -51.6 190.3 -74.4 179.7C-97.3 169.1 -117.1 153.9 -136.8 136.8C-156.6 119.7 -176.2 100.6 -187.1 77.5C-198 54.4 -200.3 27.2 -202.5 0L0 0Z" fill="#a7c8f1"></path><path d="M0 101.3C-12.9 98.2 -25.8 95.2 -37.2 89.8C-48.6 84.5 -58.5 77 -68.4 68.4C-78.3 59.9 -88.1 50.3 -93.5 38.7C-99 27.2 -100.1 13.6 -101.2 0L0 0Z" fill="#b4d4ff"></path></g><g transform="translate(0, 1080)"><path d="M0 -810C104.6 -795.9 209.1 -781.9 308.8 -745.6C408.5 -709.3 503.3 -650.7 572.8 -572.8C642.2 -494.8 686.2 -397.6 721.5 -298.9C756.9 -200.2 783.4 -100.1 810 0L0 0Z" fill="#194759"></path><path d="M0 -708.7C91.5 -696.5 183 -684.2 270.2 -652.4C357.5 -620.6 440.4 -569.3 501.2 -501.2C561.9 -433 600.5 -347.9 631.4 -261.5C662.3 -175.2 685.5 -87.6 708.8 0L0 0Z" fill="#305b71"></path><path d="M0 -607.5C78.4 -597 156.9 -586.4 231.6 -559.2C306.4 -531.9 377.5 -488 429.6 -429.6C481.6 -371.1 514.7 -298.2 541.2 -224.2C567.6 -150.1 587.6 -75.1 607.5 0L0 0Z" fill="#467089"></path><path d="M0 -506.2C65.4 -497.5 130.7 -488.7 193 -466C255.3 -443.3 314.6 -406.7 358 -358C401.4 -309.3 428.9 -248.5 451 -186.8C473 -125.1 489.6 -62.6 506.3 0L0 0Z" fill="#5d85a3"></path><path d="M0 -405C52.3 -398 104.6 -390.9 154.4 -372.8C204.3 -354.6 251.7 -325.3 286.4 -286.4C321.1 -247.4 343.1 -198.8 360.8 -149.4C378.4 -100.1 391.7 -50 405 0L0 0Z" fill="#749bbc"></path><path d="M0 -303.7C39.2 -298.5 78.4 -293.2 115.8 -279.6C153.2 -266 188.7 -244 214.8 -214.8C240.8 -185.6 257.3 -149.1 270.6 -112.1C283.8 -75.1 293.8 -37.5 303.8 0L0 0Z" fill="#8db2d7"></path><path d="M0 -202.5C26.1 -199 52.3 -195.5 77.2 -186.4C102.1 -177.3 125.8 -162.7 143.2 -143.2C160.5 -123.7 171.6 -99.4 180.4 -74.7C189.2 -50 195.9 -25 202.5 0L0 0Z" fill="#a7c8f1"></path><path d="M0 -101.2C13.1 -99.5 26.1 -97.7 38.6 -93.2C51.1 -88.7 62.9 -81.3 71.6 -71.6C80.3 -61.9 85.8 -49.7 90.2 -37.4C94.6 -25 97.9 -12.5 101.3 0L0 0Z" fill="#b4d4ff"></path></g></svg>