<?xml version="1.0" encoding="utf-8"?>
<svg width="513px" height="513px" viewBox="0 0 513 513" version="1.1" xmlns:xlink="http://www.w3.org/1999/xlink" xmlns="http://www.w3.org/2000/svg">
  <defs>
    <path d="M0 256.5C0 114.839 114.839 0 256.5 0C398.161 0 513 114.839 513 256.5C513 398.161 398.161 513 256.5 513C114.839 513 0 398.161 0 256.5Z" id="path_1" />
    <clipPath id="clip_1">
      <use xlink:href="#path_1" />
    </clipPath>
  </defs>
  <g id="Logo">
    <path d="M233.918 470.25L233.918 381.544L164.449 449.944L134.524 420.019L233.918 320.625L233.918 277.875L191.168 277.875L91.7744 377.269L61.8494 347.344L130.249 277.875L41.5432 277.875L41.5432 235.125L130.249 235.125L61.8494 165.656L91.7744 135.731L191.168 235.125L233.918 235.125L233.918 192.375L134.524 92.9812L164.449 63.0562L233.918 131.456L233.918 42.7499L276.668 42.7499L276.668 131.456L346.137 63.0562L376.062 92.9812L276.668 192.375L276.668 235.125L319.418 235.125L418.812 135.731L448.737 165.656L380.337 235.125L469.043 235.125L469.043 277.875L380.337 277.875L448.737 347.344L418.812 377.269L319.418 277.875L276.668 277.875L276.668 320.625L376.062 420.019L346.137 449.944L276.668 381.544L276.668 470.25L233.918 470.25L233.918 470.25Z" id="Shape" fill="#EEF5FF" stroke="none" />
    <g id="Oval">
      <use stroke="none" fill="#D3D3D3" fill-opacity="0" xlink:href="#path_1" fill-rule="evenodd" />
      <g clip-path="url(#clip_1)">
        <use xlink:href="#path_1" fill="none" stroke="#EEF5FF" stroke-width="26" />
      </g>
    </g>
  </g>
</svg>